<svg xmlns="http://www.w3.org/2000/svg" width="1920" height="1080" viewBox="0 0 508 285.75" xmlns:v="https://vecta.io/nano"><style><![CDATA[.B{stroke:#000}.C{stroke-width:.265}]]></style><use href="#B" fill="none" class="B C"/><g transform="matrix(-1 0 0 1 528.34116 -163.98999)" fill="none" class="B C"><use href="#B" x="-212.435" y="192.212"/><path d="M102.592 125.093l.763 20.805"/></g><g fill="none" class="B C"><use href="#B" x="-377.134" y="219.421"/><path d="M-62.107 152.302l.763 20.805"/></g><path d="M-105.212 145.094h3.563m-2.563 5h15l.004-.017m-13.453 5.017h40.449l.207-.008-.207.008m-37.651 5l38.039-.065m-33.388 5.065h33.643m-24.643 5h24.643" stroke-width=".2" class="B"/><path d="M222.322 149.749h-16.51l-3.15 7.62h-8.433l15.85-35.56h8.128l15.9 35.56h-8.636zm-2.591-6.248l-5.639-13.614-5.639 13.614zm34.138-13.868q5.08 0 8.179 3.048 3.15 3.048 3.15 9.042v15.646h-7.925v-14.427q0-3.251-1.422-4.826-1.422-1.626-4.115-1.626-2.997 0-4.775 1.88-1.778 1.829-1.778 5.486v13.513h-7.925v-27.33h7.569v3.2q1.575-1.727 3.912-2.642 2.337-.965 5.131-.965zm46.99.406v22.758q0 7.518-3.912 11.176-3.912 3.658-11.43 3.658-3.962 0-7.518-.965-3.556-.965-5.893-2.794l3.15-5.69q1.727 1.422 4.369 2.235 2.642.864 5.283.864 4.115 0 6.045-1.88 1.981-1.829 1.981-5.588v-1.168q-3.099 3.404-8.636 3.404-3.759 0-6.909-1.626-3.099-1.676-4.928-4.674-1.829-2.997-1.829-6.909 0-3.912 1.829-6.909 1.829-2.997 4.928-4.623 3.15-1.676 6.909-1.676 5.944 0 9.042 3.912v-3.505zm-14.986 19.507q3.15 0 5.131-1.829 2.032-1.88 2.032-4.877 0-2.997-2.032-4.826-1.981-1.88-5.131-1.88-3.15 0-5.182 1.88-2.032 1.829-2.032 4.826 0 2.997 2.032 4.877 2.032 1.829 5.182 1.829zm49.124-5.74q0 .152-.152 2.134h-20.676q.559 2.54 2.642 4.013 2.083 1.473 5.182 1.473 2.134 0 3.759-.61 1.676-.66 3.099-2.032l4.216 4.572q-3.861 4.42-11.278 4.42-4.623 0-8.179-1.778-3.556-1.829-5.486-5.029-1.93-3.2-1.93-7.264 0-4.013 1.88-7.214 1.93-3.251 5.232-5.029 3.353-1.829 7.468-1.829 4.013 0 7.264 1.727 3.251 1.727 5.08 4.978 1.88 3.2 1.88 7.468zm-14.173-8.179q-2.692 0-4.521 1.524-1.829 1.524-2.235 4.166h13.462q-.406-2.591-2.235-4.115-1.829-1.575-4.47-1.575zm19.456-15.951h7.925v37.694h-7.925zm24.486 38.1q-3.404 0-6.655-.813-3.251-.864-5.182-2.134l2.642-5.69q1.829 1.168 4.42 1.93 2.591.711 5.08.711 5.029 0 5.029-2.489 0-1.168-1.372-1.676-1.372-.508-4.216-.864-3.353-.508-5.537-1.168-2.184-.66-3.81-2.337-1.575-1.676-1.575-4.775 0-2.591 1.473-4.572 1.524-2.032 4.369-3.15 2.896-1.118 6.807-1.118 2.896 0 5.74.66 2.896.61 4.775 1.727l-2.642 5.639q-3.607-2.032-7.874-2.032-2.54 0-3.81.711-1.27.711-1.27 1.829 0 1.27 1.372 1.778 1.372.508 4.369.965 3.353.559 5.486 1.219 2.134.61 3.708 2.286 1.575 1.676 1.575 4.674 0 2.54-1.524 4.521-1.524 1.981-4.47 3.099-2.896 1.067-6.909 1.067z" fill="#87cefa" class="B C"/><g transform="matrix(1.058273 0 0 1.058273 118.71213 -132.54858)" fill="#f9f9f9" class="B"><g stroke-width=".291"><path d="M54.03 250.125c-46.937.419-47.356-13.41-47.356-13.41h0c-1.257 42.327 48.194 36.271 48.194 36.271h0"/><path d="M54.03 250.125l.838 22.861"/></g><path d="M7.135 245h8.498" stroke-width=".309"/><path d="M8.175 249.927l34.765-.003" stroke-width=".137"/><path d="M10.245 255h43.738l.224-.008-.224.008" stroke-width=".208"/><path d="M13.479 260l40.91-.065M18.703 265h35.94m-26.493 5h26.493" stroke-width=".207"/></g><g class="B"><circle cx="182.774" cy="125.086" r="7" fill="green" stroke-width=".2"/><path d="M175.704 132.086h14.141v25.447h-14.141z" fill="#ccc" stroke-width=".167"/></g><defs ><path id="B" d="M315.027-67.119c-42.715.381-43.096-12.204-43.096-12.204h0c-1.144 38.52 43.859 33.009 43.859 33.009h0"/></defs></svg>